<svg width="136" height="34" viewBox="0 0 136 34" fill="none" xmlns="http://www.w3.org/2000/svg">
<g id="Ebene 5">
<path id="Vector" d="M59.2754 9.77045C59.091 9.58883 58.9458 9.37125 58.8488 9.13119C58.7518 8.89112 58.7051 8.63368 58.7115 8.3748C58.7067 8.11519 58.7544 7.85728 58.8515 7.61653C58.9487 7.37578 59.0934 7.15715 59.277 6.97374C59.4606 6.79033 59.6793 6.64591 59.92 6.54914C60.1607 6.45236 60.4185 6.40523 60.6778 6.41056C60.9325 6.40569 61.1855 6.45329 61.421 6.55039C61.6566 6.64749 61.8697 6.79202 62.0471 6.97502C62.2307 7.15718 62.3751 7.3749 62.4717 7.61487C62.5683 7.85484 62.615 8.11202 62.6089 8.37067C62.6152 8.62935 62.5687 8.88659 62.4721 9.1266C62.3755 9.3666 62.2309 9.5843 62.0471 9.76631C61.8704 9.95081 61.6576 10.0969 61.422 10.1954C61.1864 10.294 60.9331 10.3428 60.6778 10.339C60.4175 10.3461 60.1586 10.2992 59.9173 10.2014C59.6759 10.1035 59.4574 9.95682 59.2754 9.77045ZM62.1669 27.0868H59.1101V12.295H62.1669V27.0868Z" fill="#586483"/>
<path id="Vector_2" d="M75.3055 12.7753C76.2249 13.2577 76.9778 14.0064 77.4659 14.9236C77.9836 15.8719 78.2425 17.0174 78.2425 18.36V27.0853H75.2125V18.8148C75.2125 17.4888 74.8814 16.4729 74.2191 15.7672C73.5568 15.0614 72.6542 14.7079 71.5114 14.7065C70.3671 14.7065 69.4597 15.06 68.7892 15.7672C68.1186 16.4743 67.7833 17.4902 67.7833 18.8148V27.0853H64.7266V12.2936H67.7833V13.9849C68.3006 13.3639 68.9584 12.8755 69.7021 12.5603C70.484 12.2202 71.3281 12.047 72.1805 12.0517C73.2649 12.034 74.3371 12.2825 75.3034 12.7753" fill="#586483"/>
<path id="Vector_3" d="M101.607 12.7754C102.528 13.2603 103.284 14.008 103.78 14.9237C104.306 15.872 104.569 17.0175 104.571 18.3601V27.0854H101.539V18.8149C101.539 17.4889 101.208 16.473 100.547 15.7673C99.8865 15.0615 98.9833 14.708 97.8377 14.7066C96.6962 14.7066 95.7895 15.0601 95.1176 15.7673C94.4456 16.4744 94.1103 17.4903 94.1117 18.8149V27.0854H91.0859V18.8149C91.0859 17.4889 90.7555 16.473 90.0945 15.7673C89.4336 15.0615 88.531 14.708 87.3868 14.7066C86.2412 14.7066 85.3331 15.0601 84.6626 15.7673C83.992 16.4744 83.6547 17.4903 83.6505 18.8149V27.0854H80.5938V12.2937H83.6505V13.985C84.1636 13.3667 84.8154 12.8786 85.5527 12.5604C86.3307 12.2194 87.1716 12.0461 88.0209 12.0518C89.1217 12.0328 90.2097 12.2909 91.1851 12.8023C92.1041 13.2928 92.8525 14.0514 93.331 14.9774C93.7927 14.0678 94.5233 13.3227 95.4232 12.8437C96.3567 12.3199 97.4099 12.047 98.48 12.0518C99.565 12.034 100.638 12.2824 101.605 12.7754" fill="#586483"/>
<path id="Vector_4" d="M107.29 15.6771C107.866 14.5734 108.736 13.6506 109.803 13.011C110.87 12.3713 112.093 12.0396 113.337 12.0526C114.393 12.0275 115.438 12.2625 116.382 12.737C117.191 13.1465 117.9 13.728 118.462 14.4407V12.2945H121.545V27.0863H118.462V24.8863C117.897 25.6215 117.172 26.2183 116.342 26.6314C115.394 27.108 114.345 27.3471 113.284 27.3282C112.053 27.3389 110.844 26.999 109.799 26.3481C108.73 25.6804 107.863 24.7341 107.29 23.6106C106.661 22.3775 106.345 21.0085 106.369 19.6242C106.342 18.2517 106.66 16.8946 107.294 15.6771M117.827 17.019C117.444 16.3056 116.873 15.7112 116.175 15.3008C115.508 14.9103 114.748 14.7068 113.976 14.7116C113.205 14.7077 112.446 14.9059 111.776 15.2864C111.08 15.6877 110.508 16.2737 110.124 16.9797C109.686 17.7908 109.469 18.7027 109.494 19.6242C109.472 20.5593 109.688 21.4845 110.124 22.3121C110.502 23.0395 111.074 23.6478 111.776 24.0696C112.436 24.4654 113.191 24.6748 113.961 24.6754C114.734 24.6795 115.494 24.4753 116.161 24.0841C116.861 23.6712 117.433 23.0721 117.813 22.3535C118.249 21.5319 118.466 20.6121 118.445 19.6821C118.468 18.756 118.25 17.8397 117.813 17.0232" fill="#586483"/>
<path id="Vector_5" d="M126.345 26.6973C125.481 26.3218 124.729 25.7301 124.16 24.9791C123.634 24.2757 123.335 23.4279 123.305 22.5497H126.471C126.498 22.8608 126.593 23.1622 126.748 23.4332C126.903 23.7041 127.115 23.9381 127.369 24.119C127.962 24.5559 128.685 24.7789 129.42 24.7517C130.279 24.7517 130.946 24.5856 131.42 24.2534C131.636 24.1193 131.815 23.9318 131.939 23.7089C132.063 23.4859 132.128 23.2349 132.128 22.9797C132.136 22.7177 132.064 22.4594 131.924 22.2383C131.783 22.0171 131.579 21.8433 131.339 21.7392C130.53 21.3709 129.69 21.0748 128.83 20.8542C127.91 20.6127 127.006 20.3165 126.122 19.9672C125.422 19.6806 124.801 19.2296 124.313 18.6522C123.802 18.0609 123.546 17.2827 123.546 16.3179C123.543 15.5409 123.788 14.7833 124.244 14.1551C124.753 13.4662 125.443 12.9322 126.238 12.6127C127.185 12.2209 128.203 12.0287 129.228 12.0482C130.909 12.0482 132.264 12.4735 133.291 13.3239C134.318 14.1744 134.869 15.333 134.943 16.7996H131.886C131.871 16.4938 131.791 16.1947 131.652 15.9219C131.513 15.649 131.319 15.4084 131.081 15.2158C130.598 14.823 129.945 14.6259 129.123 14.6245C128.319 14.6245 127.702 14.7775 127.274 15.0814C127.074 15.2116 126.909 15.3907 126.796 15.6019C126.684 15.8131 126.626 16.0495 126.63 16.2889C126.626 16.4756 126.663 16.6609 126.736 16.8324C126.81 17.0039 126.92 17.1577 127.057 17.2834C127.361 17.5585 127.718 17.7695 128.105 17.9037C128.518 18.0567 129.126 18.249 129.928 18.4806C130.828 18.7099 131.711 19.0014 132.57 19.3531C133.255 19.6465 133.865 20.092 134.352 20.6557C134.854 21.2291 135.113 21.9873 135.131 22.9301C135.142 23.737 134.898 24.5267 134.433 25.1859C133.932 25.8766 133.25 26.4148 132.463 26.7407C131.516 27.136 130.497 27.3283 129.472 27.3052C128.398 27.3261 127.332 27.1145 126.347 26.6849" fill="#586483"/>
<path id="Vector_6" d="M44 27.0968V6.90234H56.9107V9.96449H47.0588V15.9502H56.2539V18.8304H47.0588V27.0968H44Z" fill="#586483"/>
<path id="Vector_7" d="M33.9632 17C33.9632 20.3622 32.9673 23.649 31.1013 26.4447C29.2354 29.2403 26.5832 31.4192 23.4802 32.7059C20.3772 33.9926 16.9628 34.3292 13.6687 33.6733C10.3746 33.0173 7.34873 31.3983 4.97381 29.0208C2.59889 26.6433 0.981544 23.6142 0.326305 20.3165C-0.328935 17.0188 0.00735784 13.6007 1.29266 10.4944C2.57795 7.38803 4.75453 4.73299 7.54714 2.86501C10.3398 0.997031 13.623 0 16.9816 0C19.2117 0 21.4199 0.439717 23.4802 1.29405C25.5405 2.14837 27.4126 3.40058 28.9894 4.97918C30.5663 6.55777 31.8172 8.43183 32.6706 10.4944C33.524 12.5569 33.9632 14.7675 33.9632 17Z" fill="#E2001A"/>
<path id="Vector_8" d="M15.0175 6.90234L6.89844 22.9491H11.4506L19.5696 6.90234H15.0175Z" fill="#FDFDFD"/>
<path id="Vector_9" d="M22.5097 11.0508L14.3906 27.0976H18.9427L27.0638 11.0508H22.5097Z" fill="#FDFDFD"/>
</g>
</svg>
