<svg xmlns="http://www.w3.org/2000/svg" width="114" height="28" viewBox="0 0 114 28" fill="none" preserveAspectRatio="xMidYMid meet" aria-hidden="true" role="img">
<path d="M45.4039 15.7628C49.0527 15.7103 51.982 12.7154 51.982 8.98494C51.982 5.25448 49.0527 2.2596 45.4039 2.20705H35.2284V6.30531H45.3525C46.7915 6.30531 47.9735 7.51377 47.9735 8.98494C47.9735 10.4561 46.7915 11.6646 45.3525 11.6646H35.2284V15.6052C35.2284 15.6052 39.2369 19.073 40.4703 20.2289C41.8579 21.4899 45.9178 25.0627 45.9178 25.0627H51.5195C51.5195 25.0627 45.6094 19.5458 43.5024 17.6543C43.0399 17.234 41.7551 16.0781 41.7551 16.0781C41.3954 15.7628 41.1384 15.7628 41.1384 15.7628H45.4039Z" fill="#102E53"/>
<path d="M80.2479 2.20705H70.0724V6.30531H80.1965C81.6355 6.30531 82.8175 7.51377 82.8175 8.98494C82.8175 10.4561 81.6355 11.6646 80.1965 11.6646H70.0724V15.7628V25.1678H74.0295V15.7628H80.2479C83.8967 15.7103 86.826 12.7154 86.826 8.98494C86.826 5.25448 83.8453 2.2596 80.2479 2.20705Z" fill="#102E53"/>
<path d="M92.9933 2.20705H88.9848V25.1678H92.9933V2.20705Z" fill="#102E53"/>
<path d="M68.6867 25.1678L60.3613 2.20705H55.993L59.3849 11.6646H53.3721V15.7628H60.9266L64.3184 25.1678H68.6867Z" fill="#102E53"/>
<path d="M20.6858 0.421467C20.1205 0.368925 19.5552 0.316383 18.9899 0.316383C18.4246 0.316383 17.8593 0.368925 17.294 0.421467V3.78414V9.30102L13.491 5.41293L11.1784 3.04855C10.2533 3.7316 9.48246 4.51972 8.81437 5.46548C7.11845 7.67223 6.14201 10.4569 6.14201 13.4518C6.14201 20.7026 11.8979 26.5873 18.9899 26.5873C26.0819 26.5873 31.8377 20.7026 31.8377 13.4518C31.8377 6.77902 26.9555 1.26213 20.6858 0.421467ZM18.9899 23.2771C13.6966 23.2771 9.37967 18.8636 9.37967 13.4518C9.37967 11.3502 10.0478 9.40611 11.127 7.82985L20.6858 17.6026V3.78414C25.1568 4.62481 28.6001 8.61798 28.6001 13.4518C28.6001 18.8636 24.2832 23.2771 18.9899 23.2771Z" fill="#102E53"/>
<path d="M102.553 2.20705H96.3348V6.30531H102.553C106.562 6.30531 109.748 9.61544 109.748 13.6612C109.748 17.7594 106.51 21.017 102.553 21.017H100.549H96.3348V25.1153H102.553C108.772 25.1153 113.808 19.9662 113.808 13.6086C113.808 7.35615 108.772 2.20705 102.553 2.20705Z" fill="#102E53"/>
</svg>