<?xml version="1.0" encoding="UTF-8" standalone="no"?>
<!-- Created with Inkscape (http://www.inkscape.org/) -->

<svg
   xmlns:dc="http://purl.org/dc/elements/1.1/"
   xmlns:cc="http://creativecommons.org/ns#"
   xmlns:rdf="http://www.w3.org/1999/02/22-rdf-syntax-ns#"
   xmlns:svg="http://www.w3.org/2000/svg"
   xmlns="http://www.w3.org/2000/svg"
   xmlns:sodipodi="http://sodipodi.sourceforge.net/DTD/sodipodi-0.dtd"
   xmlns:inkscape="http://www.inkscape.org/namespaces/inkscape"
   width="2214.6799"
   height="510"
   id="svg4224"
   version="1.1"
   inkscape:version="0.48.1 "
   sodipodi:docname="Neues Dokument 3">
  <defs
     id="defs4226">
    <clipPath
       clipPathUnits="userSpaceOnUse"
       id="clipPath622">
      <path
         inkscape:connector-curvature="0"
         d="m 26.929,21.968 59.372,0 0,13.465 -59.372,0 0,-13.465 z"
         id="path624" />
    </clipPath>
  </defs>
  <sodipodi:namedview
     id="base"
     pagecolor="#ffffff"
     bordercolor="#666666"
     borderopacity="1.0"
     inkscape:pageopacity="0.0"
     inkscape:pageshadow="2"
     inkscape:zoom="0.70305097"
     inkscape:cx="1107.34"
     inkscape:cy="255"
     inkscape:document-units="px"
     inkscape:current-layer="layer1"
     showgrid="false"
     fit-margin-top="0"
     fit-margin-left="0"
     fit-margin-right="0"
     fit-margin-bottom="0"
     inkscape:window-width="1680"
     inkscape:window-height="990"
     inkscape:window-x="-4"
     inkscape:window-y="-4"
     inkscape:window-maximized="1" />
  <metadata
     id="metadata4229">
    <rdf:RDF>
      <cc:Work
         rdf:about="">
        <dc:format>image/svg+xml</dc:format>
        <dc:type
           rdf:resource="http://purl.org/dc/dcmitype/StillImage" />
        <dc:title></dc:title>
      </cc:Work>
    </rdf:RDF>
  </metadata>
  <g
     inkscape:label="Ebene 1"
     inkscape:groupmode="layer"
     id="layer1"
     transform="translate(-164.88884,-54.550018)">
    <g
       id="g618"
       transform="matrix(37.133584,0,0,-37.133584,-830.07977,1375.3043)">
      <g
         id="g620"
         clip-path="url(#clipPath622)">
        <g
           id="g626"
           transform="translate(47.6932,23.5011)">
          <path
             d="m 0,0 c 0.045,0.126 0.13,0.22 0.278,0.22 0.323,0 0.332,-0.443 0.332,-0.664 0,-0.221 -0.009,-0.66 -0.332,-0.66 -0.323,0 -0.333,0.439 -0.333,0.66 0,0.158 0.011,0.32 0.055,0.444 m 0.278,-1.533 c 0.759,0 1.035,0.514 1.035,1.089 0,0.575 -0.276,1.093 -1.035,1.093 -0.76,0 -1.035,-0.518 -1.035,-1.093 0,-0.575 0.275,-1.089 1.035,-1.089"
             style="fill:#eb690b;fill-opacity:1;fill-rule:nonzero;stroke:none"
             id="path628"
             inkscape:connector-curvature="0" />
        </g>
        <g
           id="g630"
           transform="translate(50.8473,24.1007)">
          <path
             d="m 0,0 0,-1.209 c 0,-0.16 -0.046,-0.395 -0.299,-0.395 -0.183,0 -0.25,0.132 -0.25,0.345 l 0,1.259 -0.669,0 0,-1.474 c 0,-0.455 0.268,-0.658 0.616,-0.658 0.303,0 0.49,0.152 0.583,0.41 l 0.073,0 0,-0.038 c 0,-0.105 0.003,-0.235 0.012,-0.323 l 0.622,0 C 0.678,-2.01 0.67,-1.894 0.67,-1.765 L 0.67,0 0,0 z"
             style="fill:#eb690b;fill-opacity:1;fill-rule:nonzero;stroke:none"
             id="path632"
             inkscape:connector-curvature="0" />
        </g>
        <g
           id="g634"
           transform="translate(52.5007,23.6715)">
          <path
             d="m 0,0 0,-1.107 c 0,-0.377 0.26,-0.596 0.654,-0.596 0.19,0 0.354,0.023 0.454,0.042 L 1.09,-1.241 C 1.05,-1.252 1.002,-1.257 0.952,-1.257 0.8,-1.257 0.67,-1.163 0.67,-0.958 l 0,0.958 0.418,0 0,0.429 -0.418,0 0,0.675 L 0,0.895 0,0.429 -0.369,0.429 -0.369,0 0,0 z"
             style="fill:#eb690b;fill-opacity:1;fill-rule:nonzero;stroke:none"
             id="path636"
             inkscape:connector-curvature="0" />
        </g>
        <g
           id="g638"
           transform="translate(56.1214,23.5011)">
          <path
             d="m 0,0 c 0.045,0.126 0.13,0.22 0.278,0.22 0.323,0 0.332,-0.443 0.332,-0.664 0,-0.221 -0.009,-0.66 -0.332,-0.66 -0.323,0 -0.333,0.439 -0.333,0.66 0,0.158 0.011,0.32 0.055,0.444 m 0.278,-1.533 c 0.759,0 1.035,0.514 1.035,1.089 0,0.575 -0.276,1.093 -1.035,1.093 -0.759,0 -1.035,-0.518 -1.035,-1.093 0,-0.575 0.275,-1.089 1.035,-1.089"
             style="fill:#eb690b;fill-opacity:1;fill-rule:nonzero;stroke:none"
             id="path640"
             inkscape:connector-curvature="0" />
        </g>
        <g
           id="g642"
           transform="translate(58.9546,22.018)">
          <path
             d="m 0,0 0,1.654 0.406,0 0,0.429 -0.406,0 0,0.216 c 0,0.207 0.091,0.32 0.287,0.32 0.047,0 0.087,-0.007 0.121,-0.016 L 0.441,2.593 0.455,3.039 C 0.37,3.056 0.232,3.081 0.009,3.081 c -0.418,0 -0.678,-0.177 -0.678,-0.654 l 0,-0.344 -0.382,0 0,-0.429 0.382,0 L -0.67,0 0,0 z"
             style="fill:#eb690b;fill-opacity:1;fill-rule:nonzero;stroke:none"
             id="path644"
             inkscape:connector-curvature="0" />
        </g>
        <g
           id="g646"
           transform="translate(61.8791,22.018)">
          <path
             d="m 0,0 0,1.147 c 0,0.224 0.084,0.457 0.307,0.457 0.176,0 0.242,-0.133 0.242,-0.345 l 0,-1.259 0.67,0 0,1.474 c 0,0.455 -0.268,0.658 -0.617,0.658 -0.254,0 -0.421,-0.103 -0.546,-0.323 l -0.077,0 C -0.01,1.91 0,2.011 0,2.113 l 0,0.919 -0.67,0 L -0.67,0 0,0 z"
             style="fill:#eb690b;fill-opacity:1;fill-rule:nonzero;stroke:none"
             id="path648"
             inkscape:connector-curvature="0" />
        </g>
        <g
           id="g650"
           transform="translate(64.4822,23.5011)">
          <path
             d="m 0,0 c 0.045,0.126 0.13,0.22 0.278,0.22 0.323,0 0.332,-0.443 0.332,-0.664 0,-0.221 -0.009,-0.66 -0.332,-0.66 -0.323,0 -0.332,0.439 -0.332,0.66 0,0.158 0.01,0.32 0.054,0.444 m 0.278,-1.533 c 0.759,0 1.035,0.514 1.035,1.089 0,0.575 -0.276,1.093 -1.035,1.093 -0.759,0 -1.035,-0.518 -1.035,-1.093 0,-0.575 0.276,-1.089 1.035,-1.089"
             style="fill:#eb690b;fill-opacity:1;fill-rule:nonzero;stroke:none"
             id="path652"
             inkscape:connector-curvature="0" />
        </g>
        <g
           id="g654"
           transform="translate(67.096,22.018)">
          <path
             d="m 0,0 0,1.147 c 0,0.224 0.084,0.457 0.307,0.457 0.176,0 0.242,-0.133 0.242,-0.345 l 0,-1.259 0.67,0 0,1.209 c 0,0.16 0.045,0.395 0.299,0.395 0.182,0 0.249,-0.132 0.249,-0.345 l 0,-1.259 0.67,0 0,1.512 c 0,0.44 -0.266,0.62 -0.596,0.62 C 1.516,2.132 1.352,1.989 1.189,1.73 1.061,2.011 0.912,2.132 0.602,2.132 0.299,2.132 0.112,1.98 0.02,1.722 l -0.074,0 0,0.038 c 0,0.105 -0.003,0.235 -0.012,0.323 l -0.623,0 C -0.679,1.995 -0.67,1.839 -0.67,1.657 L -0.67,0 0,0 z"
             style="fill:#eb690b;fill-opacity:1;fill-rule:nonzero;stroke:none"
             id="path656"
             inkscape:connector-curvature="0" />
        </g>
        <g
           id="g658"
           transform="translate(72.0894,23.0656)">
          <path
             d="m 0,0 c 0,0.576 -0.31,1.085 -0.957,1.085 -0.622,0 -0.964,-0.502 -0.964,-1.081 0,-0.543 0.243,-1.105 1.089,-1.101 0.282,0.004 0.54,0.059 0.715,0.113 l -0.014,0.434 c -0.176,-0.073 -0.401,-0.151 -0.593,-0.151 -0.353,0 -0.557,0.151 -0.58,0.528 L 0,-0.173 0,0 z m -0.944,0.705 c 0.257,0 0.341,-0.168 0.341,-0.465 l 0,-0.1 -0.715,0 0,0.038 c 0,0.305 0.129,0.527 0.374,0.527"
             style="fill:#eb690b;fill-opacity:1;fill-rule:nonzero;stroke:none"
             id="path660"
             inkscape:connector-curvature="0" />
        </g>
        <g
           id="g662"
           transform="translate(74.7649,22.018)">
          <path
             d="m 0,0 0,1.147 c 0,0.224 0.084,0.457 0.307,0.457 0.176,0 0.242,-0.133 0.242,-0.345 l 0,-1.259 0.67,0 0,1.209 c 0,0.16 0.045,0.395 0.299,0.395 0.183,0 0.249,-0.132 0.249,-0.345 l 0,-1.259 0.67,0 0,1.512 c 0,0.44 -0.266,0.62 -0.596,0.62 C 1.516,2.132 1.352,1.989 1.189,1.73 1.061,2.011 0.913,2.132 0.602,2.132 0.299,2.132 0.112,1.98 0.02,1.722 l -0.074,0 0,0.038 c 0,0.105 -0.003,0.235 -0.012,0.323 l -0.623,0 C -0.678,1.995 -0.67,1.839 -0.67,1.657 L -0.67,0 0,0 z"
             style="fill:#eb690b;fill-opacity:1;fill-rule:nonzero;stroke:none"
             id="path664"
             inkscape:connector-curvature="0" />
        </g>
        <g
           id="g666"
           transform="translate(79.7417,23.0656)">
          <path
             d="m 0,0 c 0,0.576 -0.31,1.085 -0.956,1.085 -0.623,0 -0.965,-0.502 -0.965,-1.081 0,-0.543 0.243,-1.105 1.089,-1.101 0.282,0.004 0.54,0.059 0.715,0.113 L -0.13,-0.55 c -0.177,-0.073 -0.402,-0.151 -0.594,-0.151 -0.353,0 -0.557,0.151 -0.58,0.528 L 0,-0.173 0,0 z m -0.944,0.705 c 0.257,0 0.341,-0.168 0.341,-0.465 l 0,-0.1 -0.715,0 0,0.038 c 0,0.305 0.129,0.527 0.374,0.527"
             style="fill:#eb690b;fill-opacity:1;fill-rule:nonzero;stroke:none"
             id="path668"
             inkscape:connector-curvature="0" />
        </g>
        <g
           id="g670"
           transform="translate(81.7316,25.0498)">
          <path
             d="m 0,0 0,-0.84 c 0,-0.142 0.007,-0.283 0.02,-0.424 l -0.071,0 c -0.147,0.239 -0.283,0.365 -0.576,0.365 -0.502,0 -0.732,-0.536 -0.732,-1.04 0,-0.651 0.237,-1.126 0.77,-1.126 0.274,0 0.422,0.147 0.549,0.381 l 0.069,0 0,-0.038 c 0,-0.103 0.01,-0.206 0.018,-0.31 l 0.637,0 C 0.677,-2.917 0.67,-2.805 0.67,-2.689 L 0.67,0 0,0 z M -0.328,-1.329 C -0.1,-1.329 0,-1.619 0,-1.972 c 0,-0.352 -0.1,-0.647 -0.328,-0.647 -0.263,0 -0.328,0.298 -0.328,0.647 0,0.35 0.066,0.643 0.328,0.643"
             style="fill:#eb690b;fill-opacity:1;fill-rule:nonzero;stroke:none"
             id="path672"
             inkscape:connector-curvature="0" />
        </g>
        <path
           d="m 83.769,24.101 -0.67,0 0,-2.083 0.67,0 0,2.083 z m 0,0.949 -0.67,0 0,-0.545 0.67,0 0,0.545 z"
           style="fill:#eb690b;fill-opacity:1;fill-rule:nonzero;stroke:none"
           id="path674"
           inkscape:connector-curvature="0" />
        <g
           id="g676"
           transform="translate(85.4105,24.1505)">
          <path
             d="m 0,0 c -0.338,0 -0.594,-0.066 -0.769,-0.129 l 0.021,-0.443 c 0.157,0.091 0.37,0.176 0.586,0.176 0.311,0 0.445,-0.17 0.445,-0.332 l 0,-0.105 -0.229,0 c -0.744,0 -1.073,-0.252 -1.073,-0.7 0,-0.394 0.258,-0.649 0.617,-0.649 0.323,0 0.486,0.188 0.685,0.409 l 0,-0.099 c 0,-0.087 0.012,-0.174 0.021,-0.26 l 0.586,0 c -0.01,0.124 -0.021,0.281 -0.021,0.438 l 0,0.932 C 0.869,-0.336 0.734,0 0,0 m -0.137,-1.786 c -0.172,0 -0.295,0.089 -0.295,0.303 0,0.29 0.257,0.395 0.589,0.395 l 0.126,0 0,-0.109 c 0,-0.195 -0.034,-0.589 -0.42,-0.589"
             style="fill:#eb690b;fill-opacity:1;fill-rule:nonzero;stroke:none"
             id="path678"
             inkscape:connector-curvature="0" />
        </g>
        <g
           id="g680"
           transform="translate(49.8288,32.2115)">
          <path
             d="m 0,0 c 0.269,0.135 0.505,0.146 0.617,0.146 0.607,0.011 1.101,-0.348 1.313,-0.907 0.047,-0.104 0.112,-0.315 0.112,-0.625 0,-0.868 -0.535,-1.272 -0.829,-1.408 -0.115,-0.057 -0.306,-0.124 -0.606,-0.124 -0.868,0 -1.392,0.702 -1.403,1.51 0,0.845 0.502,1.261 0.796,1.408 M -1.11,3.222 -1.583,1.996 -1.694,1.928 C -2.117,1.653 -2.995,0.945 -3.313,-0.4 c -0.105,-0.445 -0.116,-0.837 -0.116,-0.997 0,-1.695 0.931,-3.059 2.53,-3.63 0.711,-0.255 1.327,-0.277 1.613,-0.277 2.301,0 3.961,1.64 3.961,3.94 0,0.489 -0.074,0.881 -0.116,1.049 C 4.242,0.901 3.364,1.61 3.015,1.843 L 2.758,2.005 3.226,3.222 1.41,3.222 1.14,2.52 C 0.956,2.538 0.771,2.547 0.586,2.543 l -0.14,-0.001 0.26,0.68 -1.816,0 z"
             style="fill:#000c36;fill-opacity:1;fill-rule:nonzero;stroke:none"
             id="path682"
             inkscape:connector-curvature="0" />
        </g>
        <g
           id="g684"
           transform="translate(63.0734,31.2095)">
          <path
             d="m 0,0 0,1.398 0.425,0 C 0.872,1.398 1.344,1.31 1.344,0.715 1.344,0.508 1.275,0.367 1.227,0.295 1.035,0.007 0.711,0 0.436,0 L 0,0 z m 0.597,3.332 -3.08,0 0,-7.47 2.483,0 0,2.973 1.504,-2.973 2.804,0 -1.821,3.014 c 0.254,0.092 0.441,0.164 0.666,0.318 0.332,0.239 0.771,0.705 0.771,1.671 0,0.768 -0.294,1.218 -0.482,1.458 C 2.908,3.024 2.132,3.258 1.269,3.311 1.046,3.332 0.821,3.332 0.597,3.332"
             style="fill:#000c36;fill-opacity:1;fill-rule:nonzero;stroke:none"
             id="path686"
             inkscape:connector-curvature="0" />
        </g>
        <g
           id="g688"
           transform="translate(42.1414,31.2095)">
          <path
             d="m 0,0 0,1.398 0.425,0 C 0.871,1.398 1.344,1.31 1.344,0.715 1.344,0.508 1.275,0.367 1.227,0.295 1.035,0.007 0.71,0 0.436,0 L 0,0 z m 0.597,3.332 -3.079,0 0,-7.47 2.482,0 0,2.973 1.504,-2.973 2.804,0 -1.821,3.014 c 0.253,0.092 0.441,0.164 0.666,0.318 0.332,0.239 0.77,0.705 0.77,1.671 0,0.768 -0.293,1.218 -0.482,1.458 C 2.908,3.024 2.132,3.258 1.269,3.311 1.046,3.332 0.821,3.332 0.597,3.332"
             style="fill:#000c36;fill-opacity:1;fill-rule:nonzero;stroke:none"
             id="path690"
             inkscape:connector-curvature="0" />
        </g>
        <g
           id="g692"
           transform="translate(33.3789,34.5416)">
          <path
             d="m 0,0 0,-2.16 1.505,0 0,-5.31 2.676,0 0,5.31 1.515,0 0,2.16 L 0,0 z"
             style="fill:#000c36;fill-opacity:1;fill-rule:nonzero;stroke:none"
             id="path694"
             inkscape:connector-curvature="0" />
        </g>
        <g
           id="g696"
           transform="translate(54.9862,27.0715)">
          <path
             d="m 0,0 5.051,0 0,1.999 -2.59,0 0,0.828 2.322,0 0,1.902 -2.322,0 0,0.742 2.515,0 0,1.999 L 0,7.47 0,0 z"
             style="fill:#000c36;fill-opacity:1;fill-rule:nonzero;stroke:none"
             id="path698"
             inkscape:connector-curvature="0" />
        </g>
        <g
           id="g700"
           transform="translate(32.2477,34.4026)">
          <path
             d="m 0,0 c -0.588,0.231 -1.276,0.384 -1.912,0.384 -1.138,0 -2.282,-0.436 -2.806,-1.504 -0.094,-0.189 -0.273,-0.599 -0.273,-1.177 0,-1.315 0.965,-1.763 1.411,-1.922 0.298,-0.096 0.789,-0.203 1.109,-0.256 l 0.175,-0.037 c 0.215,-0.053 0.422,-0.156 0.422,-0.419 0,-0.286 -0.294,-0.522 -0.78,-0.522 -0.672,0 -1.319,0.431 -1.833,0.786 l -0.832,-1.967 c 0.992,-0.519 1.897,-0.828 3.042,-0.828 0.892,0 1.607,0.201 2.271,0.791 0.768,0.705 0.862,1.481 0.862,1.891 0,0.505 -0.135,1.494 -1.37,1.975 -0.32,0.118 -0.875,0.246 -1.206,0.321 l -0.181,0.036 c -0.21,0.049 -0.436,0.146 -0.436,0.408 0,0.291 0.259,0.436 0.682,0.447 0.597,0 1.09,-0.277 1.574,-0.565 l 0.759,1.852 C 0.511,-0.226 0.287,-0.113 0,0"
             style="fill:#000c36;fill-opacity:1;fill-rule:nonzero;stroke:none"
             id="path702"
             inkscape:connector-curvature="0" />
        </g>
      </g>
    </g>
  </g>
</svg>
