<?xml version="1.0" encoding="iso-8859-1"?>
<!-- Generator: Adobe Illustrator 16.0.0, SVG Export Plug-In . SVG Version: 6.00 Build 0)  -->
<!DOCTYPE svg PUBLIC "-//W3C//DTD SVG 1.1//EN" "http://www.w3.org/Graphics/SVG/1.1/DTD/svg11.dtd">
<svg version="1.1" id="Ebene_1" xmlns="http://www.w3.org/2000/svg" xmlns:xlink="http://www.w3.org/1999/xlink" x="0px" y="0px"
	 width="169.332px" height="21.462px" viewBox="0 0 169.332 21.462" style="enable-background:new 0 0 169.332 21.462;"
	 xml:space="preserve">
<g>
	<defs>
		<rect id="SVGID_1_" y="0" width="169.332" height="36.713"/>
	</defs>
	<clipPath id="SVGID_2_">
		<use xlink:href="#SVGID_1_"  style="overflow:visible;"/>
	</clipPath>
	<path style="clip-path:url(#SVGID_2_);fill:#494B52;" d="M7.291,10.714c0-2.379-0.933-4.513-3.334-4.513
		c-1.267,0-2.334,0.845-2.801,1.445v6.625c0.533,0.533,1.445,0.978,2.557,0.978C6.113,15.249,7.291,13.07,7.291,10.714 M0,5.401
		h1.156v1.156c0.6-0.756,1.645-1.4,3.001-1.4c2.845,0,4.357,2.311,4.357,5.512c0,3.046-1.778,5.58-4.735,5.58
		c-1.267,0-2.134-0.468-2.623-0.912v5.535H0V5.401z"/>
	<path style="clip-path:url(#SVGID_2_);fill:#494B52;" d="M18.272,9.402c-0.022-1.6-0.845-3.245-2.868-3.245
		c-1.844,0-2.911,1.422-3.223,3.245H18.272z M10.893,10.603c0-3.001,1.734-5.446,4.557-5.446c2.712,0,4.201,2.178,3.979,5.201
		h-7.313v0.245c0.022,2.423,1.044,4.646,3.579,4.646c1.355,0,2.489-0.556,3.067-1l0.489,0.911c-0.667,0.489-1.889,1.089-3.601,1.089
		C12.405,16.249,10.893,13.648,10.893,10.603"/>
	<path style="clip-path:url(#SVGID_2_);fill:#494B52;" d="M30.365,10.714c0-2.379-1.266-4.557-3.689-4.557
		c-2.401,0-3.49,2.134-3.49,4.512c0,2.401,1.178,4.58,3.579,4.58C29.188,15.25,30.365,13.116,30.365,10.714 M21.963,10.714
		c0-2.668,1.423-5.557,4.757-5.557c3.335,0,4.868,2.867,4.868,5.512c0,2.667-1.511,5.58-4.845,5.58
		C23.408,16.25,21.963,13.381,21.963,10.714"/>
	<path style="clip-path:url(#SVGID_2_);fill:#494B52;" d="M42.08,10.714c0-2.379-0.933-4.513-3.334-4.513
		c-1.267,0-2.334,0.845-2.801,1.445v6.625c0.533,0.533,1.445,0.978,2.556,0.978C40.902,15.249,42.08,13.07,42.08,10.714
		 M34.789,5.401h1.156v1.156c0.6-0.756,1.645-1.4,3.001-1.4c2.845,0,4.357,2.311,4.357,5.512c0,3.046-1.779,5.58-4.735,5.58
		c-1.267,0-2.134-0.468-2.623-0.912v5.535h-1.156V5.401z"/>
</g>
<rect x="46.549" y="0" style="fill:#494B52;" width="1.156" height="16.006"/>
<g>
	<path style="fill:#494B52;" d="M58.33,9.402c-0.022-1.6-0.845-3.245-2.867-3.245c-1.845,0-2.912,1.422-3.224,3.245H58.33z
		 M50.95,10.603c0-3.001,1.734-5.446,4.557-5.446c2.712,0,4.201,2.178,3.979,5.201h-7.313v0.245
		c0.022,2.423,1.044,4.646,3.579,4.646c1.355,0,2.489-0.556,3.067-1l0.489,0.911c-0.667,0.489-1.889,1.089-3.601,1.089
		C52.462,16.249,50.95,13.648,50.95,10.603"/>
	<path style="fill:#494B52;" d="M66.565,5.246h2.378v10.759h-2.378V5.246z M66.209,2.067c0-0.823,0.667-1.511,1.534-1.511
		c0.889,0,1.556,0.688,1.556,1.511c0,0.822-0.667,1.512-1.556,1.512C66.876,3.58,66.209,2.889,66.209,2.067"/>
	<path style="fill:#494B52;" d="M72.5,5.246h2.334v1.445c0.867-1.045,2.023-1.712,3.445-1.712c2.312,0,3.202,1.512,3.202,3.423
		v7.603h-2.357V8.892c0-1.2-0.422-1.89-1.645-1.89c-1.066,0-2.023,0.822-2.6,1.623v7.38H72.5V5.246z"/>
	<path style="fill:#494B52;" d="M85.482,13.137V7.046h-1.734v-1.8h1.734v-3.09h2.356v3.09h2.6v1.8h-2.6v5.712
		c0,1.068,0.288,1.557,1.155,1.557c0.645,0,1.223-0.312,1.422-0.444l0.667,1.778c-0.399,0.222-1.244,0.622-2.512,0.622
		C86.371,16.271,85.482,15.071,85.482,13.137"/>
	<path style="fill:#494B52;" d="M99.707,9.292c-0.044-1.355-0.622-2.512-2.199-2.512c-1.445,0-2.245,1-2.513,2.512H99.707z
		 M92.461,10.558c0-3.29,2.156-5.579,5.091-5.579c2.89,0,4.489,1.911,4.489,5.068c0,0.289-0.021,0.622-0.044,0.933h-7.023
		c0.11,1.912,0.956,3.446,3.045,3.446c1.467,0,2.379-0.578,2.868-0.845l0.821,1.623c-0.622,0.378-1.777,1.067-3.867,1.067
		C94.328,16.271,92.461,13.871,92.461,10.558"/>
	<path style="fill:#494B52;" d="M104.844,5.246h2.378v1.556c0.444-0.756,1.356-1.823,2.778-1.823c0.734,0,1.112,0.156,1.312,0.267
		l-0.578,2.112c-0.156-0.089-0.445-0.223-1.045-0.223c-1.445,0-2.267,1.49-2.468,1.89v6.98h-2.378V5.246z"/>
	<path style="fill:#494B52;" d="M118.781,13.248v-2.155h-0.423c-1.979,0-3.379,0.555-3.379,2.067c0,0.934,0.756,1.289,1.423,1.289
		C117.448,14.449,118.226,13.938,118.781,13.248 M112.624,13.292c0-2.801,3.001-3.757,5.734-3.757h0.423V8.758
		c0-1.289-0.556-1.845-1.934-1.845c-1.09,0-1.979,0.422-2.757,1.09l-1.112-1.512c0.957-0.867,2.313-1.511,4.113-1.511
		c2.667,0,4.046,1.133,4.046,3.801v4.379c0,1.267,0.133,2.245,0.266,2.845h-2.334c-0.065-0.289-0.154-0.889-0.177-1.222
		c-0.623,0.799-1.733,1.489-3.112,1.489C113.979,16.271,112.624,15.16,112.624,13.292"/>
	<path style="fill:#494B52;" d="M123.694,10.625c0-3.646,2.334-5.646,5.335-5.646c1.756,0,2.779,0.599,3.29,0.955l-0.867,1.668
		c-0.534-0.356-1.223-0.756-2.379-0.756c-1.956,0-2.889,1.556-2.889,3.712c0,2.135,0.933,3.824,2.934,3.824
		c1.289,0,2.134-0.556,2.467-0.756l0.778,1.623c-0.444,0.355-1.489,1.022-3.423,1.022C125.628,16.271,123.694,13.803,123.694,10.625
		"/>
	<path style="fill:#494B52;" d="M135.564,13.137V7.046h-1.733v-1.8h1.733v-3.09h2.356v3.09h2.601v1.8h-2.601v5.712
		c0,1.068,0.289,1.557,1.156,1.557c0.645,0,1.223-0.312,1.423-0.444l0.667,1.778c-0.401,0.222-1.245,0.622-2.512,0.622
		C136.454,16.271,135.564,15.071,135.564,13.137"/>
	<path style="fill:#494B52;" d="M143.633,5.246h2.379v10.759h-2.379V5.246z M143.278,2.067c0-0.823,0.667-1.511,1.534-1.511
		c0.889,0,1.556,0.688,1.556,1.511c0,0.822-0.667,1.512-1.556,1.512C143.945,3.58,143.278,2.889,143.278,2.067"/>
</g>
<polygon style="fill:#494B52;" points="148.392,5.246 150.947,5.246 153.548,13.026 153.594,13.026 156.194,5.246 158.616,5.246 
	154.638,16.005 152.438,16.005 "/>
<g>
	<defs>
		<rect id="SVGID_3_" y="0" width="169.332" height="36.713"/>
	</defs>
	<clipPath id="SVGID_4_">
		<use xlink:href="#SVGID_3_"  style="overflow:visible;"/>
	</clipPath>
	<path style="clip-path:url(#SVGID_4_);fill:#494B52;" d="M166.997,9.292c-0.044-1.355-0.622-2.512-2.2-2.512
		c-1.445,0-2.245,1-2.512,2.512H166.997z M159.751,10.558c0-3.29,2.156-5.579,5.091-5.579c2.889,0,4.49,1.911,4.49,5.068
		c0,0.289-0.022,0.622-0.045,0.933h-7.024c0.111,1.912,0.956,3.446,3.045,3.446c1.467,0,2.379-0.578,2.868-0.845l0.822,1.623
		c-0.622,0.378-1.778,1.067-3.868,1.067C161.618,16.271,159.751,13.871,159.751,10.558"/>
</g>
</svg>
