<svg overflow="visible" style="display: block;" viewBox="0 0 140.639 74" fill="none" xmlns="http://www.w3.org/2000/svg">
<g id="Pro Sieben">
<g id="Union">
<path d="M15.0918 36.2974C25.4362 29.9691 33.8414 31.0336 33.9102 31.0425V54.3218H0C0.0256979 54.2521 4.18884 42.9975 15.0918 36.2974Z" fill="var(--fill-0, #111111)"/>
<path fill-rule="evenodd" clip-rule="evenodd" d="M72.1787 34.0903C75.0311 34.0904 77.2119 36.2731 77.2119 39.1255C77.2117 41.9762 75.0302 44.1566 72.1787 44.1567C69.1582 44.1567 67.1448 41.9762 67.1445 39.1255C67.1445 36.273 69.1581 34.0903 72.1787 34.0903ZM72.1787 36.439C70.668 36.439 70.333 37.7822 70.333 39.1255C70.3324 40.2997 70.6682 41.6421 72.1787 41.6421C73.5201 41.6419 74.0243 40.2996 74.0244 39.1255C74.0244 37.7831 73.5203 36.4391 72.1787 36.439Z" fill="var(--fill-0, #111111)"/>
<path d="M84.2598 30.5669C86.9447 30.567 89.4609 31.7414 89.4609 34.5923H86.2725C86.2725 33.4196 85.0986 33.0826 84.0918 33.0825C83.4205 33.0825 82.4141 33.4196 82.4141 34.2583C82.4144 35.265 84.26 35.4328 86.1055 36.104C88.1182 36.6071 89.9637 37.4462 89.9639 39.7944C89.9639 43.1514 87.1112 44.1567 84.2588 44.1567C81.2383 44.1567 78.7218 42.8162 78.7217 39.4595H81.9102C82.0777 41.1373 83.0845 41.642 84.4268 41.6421C85.4336 41.6421 86.6084 41.1373 86.6084 40.1304C86.6084 38.9561 84.7627 38.6207 82.749 38.1177C80.9034 37.6131 79.0576 36.9412 79.0576 34.4243C79.0579 31.5722 81.9105 30.5669 84.2598 30.5669Z" fill="var(--fill-0, #111111)"/>
<path fill-rule="evenodd" clip-rule="evenodd" d="M101.71 34.0894C105.234 34.0894 106.911 36.6064 106.743 39.7944H99.6963L99.7334 40.0405C99.9512 41.2388 100.62 41.9759 101.877 41.9761C102.717 41.9761 103.389 41.6419 103.725 40.9692H106.577C106.073 43.1519 104.058 44.1567 101.877 44.1567C98.6907 44.1566 96.6769 42.1442 96.6768 38.9565C96.6768 36.1041 99.0249 34.0894 101.71 34.0894ZM101.71 36.104C100.703 36.104 99.8646 36.9429 99.6963 38.1177H103.556C103.555 36.9421 102.884 36.104 101.71 36.104Z" fill="var(--fill-0, #111111)"/>
<path fill-rule="evenodd" clip-rule="evenodd" d="M111.442 35.2661C112.114 34.4259 113.121 34.0903 114.295 34.0903C116.979 34.0904 118.154 36.4398 118.154 38.7876C118.154 41.4734 116.978 44.1567 113.958 44.1567C112.951 44.1566 111.945 43.6537 111.274 42.647V43.8228H108.422V30.7339H111.442V35.2661ZM113.288 36.4399C112.449 36.4399 111.276 36.9423 111.275 38.9565C111.275 40.6347 111.778 41.6431 113.288 41.6431C114.63 41.643 115.134 40.2997 115.134 38.9565C115.134 37.7823 114.63 36.44 113.288 36.4399Z" fill="var(--fill-0, #111111)"/>
<path fill-rule="evenodd" clip-rule="evenodd" d="M124.362 34.0894C127.718 34.0894 129.563 36.6064 129.396 39.7944H122.349L122.358 40.0405C122.456 41.2387 123.272 41.976 124.529 41.9761C125.201 41.9761 126.041 41.6419 126.208 40.9692H129.228C128.558 43.1518 126.543 44.1567 124.529 44.1567C121.343 44.1566 119.328 42.1443 119.328 38.9565C119.328 36.1041 121.51 34.0894 124.362 34.0894ZM124.362 36.104C123.356 36.104 122.517 36.9429 122.349 38.1177H126.208C126.208 36.9422 125.369 36.1041 124.362 36.104Z" fill="var(--fill-0, #111111)"/>
<path fill-rule="evenodd" clip-rule="evenodd" d="M53.7207 30.7339C56.07 30.734 58.4189 31.9089 58.4189 34.9302C58.4189 38.1181 56.5737 39.4594 53.7207 39.4595H50.8682V43.8237H47.5117V30.7339H53.7207ZM50.8682 36.7759H53.2178C54.2245 36.7758 55.0635 36.4395 55.0635 35.0972C55.0633 33.9232 54.2244 33.4205 53.2178 33.4204H50.8682V36.7759Z" fill="var(--fill-0, #111111)"/>
<path d="M65.8027 34.0903C65.9711 34.0903 66.3063 34.0905 66.4736 34.2593V37.1108C66.138 36.9419 65.6344 36.7759 65.2988 36.7759C63.7892 36.7761 62.9503 37.9499 62.9502 39.1255V43.8237H59.7617V34.2593H62.7812V35.937H62.9502C63.2858 34.7612 64.4602 34.0903 65.8027 34.0903Z" fill="var(--fill-0, #111111)"/>
<path d="M94.998 43.8237H91.9785V34.2593H94.998V43.8237Z" fill="var(--fill-0, #111111)"/>
<path d="M137.116 34.0903C140.303 34.0904 140.639 36.2728 140.639 37.7827V43.8228H137.45V39.2915C137.45 37.9491 137.619 36.6061 135.94 36.606C134.766 36.606 134.264 37.6128 134.264 38.6196V43.8228H131.075V34.2593H134.095V35.6011H134.264C134.767 34.5929 136.109 34.0903 137.116 34.0903Z" fill="var(--fill-0, #111111)"/>
<path d="M94.998 33.0825H91.9785V30.7339H94.998V33.0825Z" fill="var(--fill-0, #111111)"/>
<path d="M33.9102 29.2095H0V19.6782H33.9102V29.2095Z" fill="var(--fill-0, #111111)"/>
</g>
</g>
</svg>
